<svg width="21" height="13" viewBox="0 0 21 13" fill="none" xmlns="http://www.w3.org/2000/svg">
<path d="M3.98705 11C3.89371 11 3.81438 10.972 3.74905 10.916C3.69305 10.8507 3.66505 10.7713 3.66505 10.678V2.838L1.34105 4.63C1.26638 4.686 1.18705 4.70933 1.10305 4.7C1.01905 4.69067 0.949047 4.64867 0.893047 4.574L0.529047 4.112C0.473047 4.028 0.449714 3.944 0.459047 3.86C0.477714 3.776 0.52438 3.706 0.599047 3.65L3.65105 1.298C3.71638 1.25133 3.77705 1.22333 3.83305 1.214C3.88905 1.20467 3.94971 1.2 4.01505 1.2H4.72905C4.82238 1.2 4.89705 1.23267 4.95305 1.298C5.00905 1.354 5.03705 1.42867 5.03705 1.522V10.678C5.03705 10.7713 5.00905 10.8507 4.95305 10.916C4.89705 10.972 4.82238 11 4.72905 11H3.98705ZM6.75533 12.176C6.68066 12.176 6.61533 12.148 6.55933 12.092C6.50333 12.036 6.47533 11.9707 6.47533 11.896C6.47533 11.8493 6.48933 11.7933 6.51733 11.728L11.3053 0.248C11.3333 0.192 11.3707 0.135999 11.4173 0.0799996C11.4733 0.0239997 11.5573 -0.00400019 11.6693 -0.00400019H12.2153C12.29 -0.00400019 12.3553 0.0239997 12.4113 0.0799996C12.4673 0.135999 12.4953 0.201333 12.4953 0.276C12.4953 0.313333 12.486 0.369333 12.4673 0.444L7.66533 11.924C7.64666 11.9707 7.60466 12.022 7.53933 12.078C7.48333 12.1433 7.40399 12.176 7.30133 12.176H6.75533ZM13.6682 11C13.5748 11 13.4955 10.972 13.4302 10.916C13.3742 10.8507 13.3462 10.7713 13.3462 10.678V10.23C13.3462 10.146 13.3695 10.0527 13.4162 9.95C13.4628 9.84733 13.5562 9.73533 13.6962 9.614L16.6642 6.646C17.1402 6.24467 17.5135 5.904 17.7842 5.624C18.0642 5.33467 18.2602 5.05933 18.3722 4.798C18.4935 4.53667 18.5542 4.266 18.5542 3.986C18.5542 3.454 18.4048 3.034 18.1062 2.726C17.8075 2.40867 17.3642 2.25 16.7762 2.25C16.4028 2.25 16.0808 2.32933 15.8102 2.488C15.5395 2.63733 15.3248 2.84733 15.1662 3.118C15.0168 3.37933 14.9188 3.678 14.8722 4.014C14.8535 4.13533 14.8022 4.21933 14.7182 4.266C14.6435 4.31267 14.5735 4.336 14.5082 4.336H13.7802C13.6962 4.336 13.6262 4.31267 13.5702 4.266C13.5142 4.21 13.4862 4.14467 13.4862 4.07C13.4955 3.71533 13.5702 3.36067 13.7102 3.006C13.8502 2.642 14.0555 2.31533 14.3262 2.026C14.6062 1.73667 14.9468 1.50333 15.3482 1.326C15.7588 1.13933 16.2348 1.046 16.7762 1.046C17.5135 1.046 18.1155 1.18133 18.5822 1.452C19.0582 1.71333 19.4082 2.06333 19.6322 2.502C19.8562 2.94067 19.9682 3.42133 19.9682 3.944C19.9682 4.35467 19.8982 4.73267 19.7582 5.078C19.6182 5.414 19.4128 5.74533 19.1422 6.072C18.8808 6.38933 18.5542 6.716 18.1622 7.052L15.4742 9.782H19.8422C19.9448 9.782 20.0242 9.81 20.0802 9.866C20.1455 9.922 20.1782 10.0013 20.1782 10.104V10.678C20.1782 10.7713 20.1455 10.8507 20.0802 10.916C20.0242 10.972 19.9448 11 19.8422 11H13.6682Z" fill="#F4FFFB"/>
</svg>
