<svg width="14" height="13" viewBox="0 0 14 13" fill="none" xmlns="http://www.w3.org/2000/svg">
<g clip-path="url(#clip0_6003_655)">
<path d="M13.1122 8.07188C12.2437 11.5559 8.71388 13.6738 5.23485 12.8052C1.75075 11.9368 -0.367132 8.40708 0.50138 4.92811C1.36984 1.44411 4.89457 -0.673772 8.37867 0.194739C11.8577 1.05812 13.9807 4.58782 13.1122 8.07188Z" fill="url(#paint0_linear_6003_655)"/>
<path d="M9.90151 5.69001C10.0285 4.82673 9.37339 4.35955 8.46948 4.04978L8.76401 2.87673L8.05308 2.699L7.7687 3.84158C7.58081 3.79587 7.38784 3.75017 7.19487 3.70955L7.47925 2.56189L6.76831 2.38416L6.47886 3.55212C6.32144 3.51658 6.16909 3.48103 6.02183 3.44548V3.44041L5.03667 3.19666L4.84878 3.95837C4.84878 3.95837 5.3769 4.08025 5.36675 4.08533C5.6562 4.15642 5.70698 4.34939 5.69683 4.50173L5.36167 5.83728C5.38198 5.84236 5.40737 5.84744 5.43784 5.86267C5.41245 5.85759 5.38706 5.85251 5.36167 5.84236L4.89448 7.71111C4.85894 7.79744 4.76753 7.92947 4.56948 7.87869C4.57456 7.88884 4.05151 7.75173 4.05151 7.75173L3.69604 8.56931L4.62534 8.80291C4.798 8.84861 4.96558 8.88923 5.13315 8.93494L4.83862 10.1181L5.54956 10.2959L5.84409 9.12283C6.03706 9.17361 6.23003 9.22439 6.41284 9.27009L6.12339 10.4381L6.83433 10.6158L7.12886 9.43259C8.34761 9.66111 9.26167 9.5697 9.64253 8.46775C9.95229 7.58416 9.6273 7.07126 8.98745 6.73611C9.45972 6.62947 9.81011 6.3197 9.90151 5.69001ZM8.27144 7.97517C8.05308 8.85877 6.56011 8.38142 6.07769 8.25955L6.4687 6.69041C6.95112 6.81228 8.50503 7.05095 8.27144 7.97517ZM8.49487 5.67478C8.29175 6.4822 7.05269 6.07087 6.65151 5.96931L7.00698 4.54744C7.40815 4.649 8.70308 4.83689 8.49487 5.67478Z" fill="white"/>
</g>
<defs>
<linearGradient id="paint0_linear_6003_655" x1="649.955" y1="-0.312" x2="649.955" y2="1299.87" gradientUnits="userSpaceOnUse">
<stop stop-color="#F9AA4B"/>
<stop offset="1" stop-color="#F7931A"/>
</linearGradient>
<clipPath id="clip0_6003_655">
<rect width="13" height="13" fill="white" transform="translate(0.306641)"/>
</clipPath>
</defs>
</svg>
