<svg width="18" height="18" viewBox="0 0 18 18" fill="none" xmlns="http://www.w3.org/2000/svg">
<path fill-rule="evenodd" clip-rule="evenodd" d="M8.01758 3.25C8.01758 2.55937 8.45258 2 9.14258 2C9.83258 2 10.2676 2.55937 10.2676 3.25L10.3926 8.25C10.3926 8.0225 10.7051 4.7125 10.7051 4.5C10.7051 3.875 11.077 3.25 11.7676 3.25C12.4582 3.25 12.8926 3.80938 12.8926 4.5V9.0425C12.9445 9.0125 13.0801 6.63875 13.0801 6.375C13.0801 5.75 13.2445 5.125 13.8301 5.125C14.4163 5.125 14.7676 5.68438 14.7676 6.375V10.125C14.7676 11.4511 14.2408 12.7229 13.3031 13.6605C12.3654 14.5982 11.0937 15.125 9.76758 15.125H9.34633C8.41783 15.125 7.50769 14.8664 6.71786 14.3783C5.92803 13.8901 5.28972 13.1917 4.87445 12.3612L3.0982 8.80875C2.8707 8.35375 3.0457 7.76625 3.5482 7.54375C3.81258 7.42688 4.10883 7.36125 4.38758 7.45C5.08008 7.67063 4.97758 7.9875 5.39258 8.38125V4.5C5.39258 3.80938 5.82695 3.25 6.51758 3.25C7.14258 3.25 7.5232 4.07188 7.58008 4.5C7.6582 5.08625 7.89258 8.02125 7.89258 8.24875L8.01758 3.25Z" fill="#C844FD"/>
</svg>
