<svg width="18" height="18" viewBox="0 0 18 18" fill="none" xmlns="http://www.w3.org/2000/svg">
<rect x="3" y="2" width="8.57718" height="12.5799" rx="1" fill="#EEB721"/>
<path d="M12.4736 6.5C12.7498 6.5 12.9736 6.72386 12.9736 7V11.8203H15C15.206 11.8203 15.391 11.9467 15.4658 12.1387C15.5404 12.3304 15.4901 12.5481 15.3389 12.6875L11.3389 16.3682C11.1475 16.5442 10.8525 16.5442 10.6611 16.3682L6.66113 12.6875C6.50992 12.5481 6.45956 12.3304 6.53418 12.1387C6.60904 11.9467 6.79397 11.8203 7 11.8203H9.02637V7C9.02637 6.72386 9.25022 6.5 9.52637 6.5H12.4736Z" fill="#EEB721" stroke="#3B413E" stroke-linecap="round" stroke-linejoin="round"/>
</svg>
